<mxfile host="app.diagrams.net" modified="2024-07-09T13:56:39.272Z" agent="Mozilla/5.0 (Windows NT 10.0; Win64; x64; rv:128.0) Gecko/20100101 Firefox/128.0" version="24.5.5" etag="IvrvLb5BySIFtXLU_Rwp" type="github">
  <diagram name="Page-1" id="jMJl_6bWF69VKY_kllAG">
    <mxGraphModel>
      <root>
        <mxCell id="0" />
        <mxCell id="1" parent="0" />
      </root>
    </mxGraphModel>
  </diagram>
</mxfile>
